<svg width="32" height="32" viewBox="0 0 32 32" fill="none" xmlns="http://www.w3.org/2000/svg">
<path d="M18.5 29.3333H13.5C13.1667 29.3333 12.8778 29.2222 12.6334 29C12.3889 28.7778 12.2445 28.5 12.2 28.1667L11.8 25.0667C11.5112 24.9555 11.2387 24.8222 10.9827 24.6667C10.7267 24.5111 10.4769 24.3444 10.2334 24.1667L7.33338 25.3667C7.02227 25.4778 6.71115 25.4889 6.40004 25.4C6.08893 25.3111 5.84449 25.1222 5.66671 24.8333L3.20004 20.5333C3.02227 20.2444 2.96671 19.9333 3.03338 19.6C3.10004 19.2667 3.26671 19 3.53338 18.8L6.03338 16.9C6.01115 16.7444 6.00004 16.5942 6.00004 16.4493V15.5507C6.00004 15.4058 6.01115 15.2555 6.03338 15.1L3.53338 13.2C3.26671 13 3.10004 12.7333 3.03338 12.4C2.96671 12.0667 3.02227 11.7555 3.20004 11.4667L5.66671 7.16666C5.82227 6.85555 6.06093 6.66088 6.38271 6.58266C6.70449 6.50443 7.02138 6.52132 7.33338 6.63332L10.2334 7.83332C10.4778 7.65555 10.7334 7.48888 11 7.33332C11.2667 7.17777 11.5334 7.04443 11.8 6.93332L12.2 3.83332C12.2445 3.49999 12.3889 3.22221 12.6334 2.99999C12.8778 2.77777 13.1667 2.66666 13.5 2.66666H18.5C18.8334 2.66666 19.1223 2.77777 19.3667 2.99999C19.6112 3.22221 19.7556 3.49999 19.8 3.83332L20.2 6.93332C20.4889 7.04443 20.7614 7.17777 21.0174 7.33332C21.2734 7.48888 21.5232 7.65555 21.7667 7.83332L24.6667 6.63332C24.9778 6.52221 25.2889 6.5111 25.6 6.59999C25.9112 6.68888 26.1556 6.87777 26.3334 7.16666L28.8 11.4667C28.9778 11.7555 29.0334 12.0667 28.9667 12.4C28.9 12.7333 28.7334 13 28.4667 13.2L25.9667 15.1C25.9889 15.2555 26 15.4058 26 15.5507V16.4493C26 16.5942 25.9778 16.7444 25.9334 16.9L28.4334 18.8C28.7 19 28.8667 19.2667 28.9334 19.6C29 19.9333 28.9445 20.2444 28.7667 20.5333L26.3 24.8C26.1223 25.0889 25.872 25.2835 25.5494 25.384C25.2267 25.4844 24.9103 25.4787 24.6 25.3667L21.7667 24.1667C21.5223 24.3444 21.2667 24.5111 21 24.6667C20.7334 24.8222 20.4667 24.9555 20.2 25.0667L19.8 28.1667C19.7556 28.5 19.6112 28.7778 19.3667 29C19.1223 29.2222 18.8334 29.3333 18.5 29.3333ZM16.0667 20.6667C17.3556 20.6667 18.4556 20.2111 19.3667 19.3C20.2778 18.3889 20.7334 17.2889 20.7334 16C20.7334 14.7111 20.2778 13.6111 19.3667 12.7C18.4556 11.7889 17.3556 11.3333 16.0667 11.3333C14.7556 11.3333 13.6498 11.7889 12.7494 12.7C11.8489 13.6111 11.3992 14.7111 11.4 16C11.4 17.2889 11.8498 18.3889 12.7494 19.3C13.6489 20.2111 14.7547 20.6667 16.0667 20.6667Z" fill="#242760"/>
</svg>
